<mxfile host="app.diagrams.net" agent="Mozilla/5.0 (Windows NT 10.0; Win64; x64) AppleWebKit/537.36 (KHTML, like Gecko) Chrome/132.0.0.0 Safari/537.36" version="26.0.11">
  <diagram name="페이지-1" id="YC0htVuwAJBsdBm6UMwc">
   <mxGraphModel grid="1" page="1" gridSize="10" guides="1" tooltips="1" connect="1" arrows="1" fold="1" pageScale="1" pageWidth="827" pageHeight="1169" math="0" shadow="0">
         <root>
           <mxCell id="0" />
           <mxCell id="1" parent="0" />
           <mxCell id="YKqeXOK4ykzcalDaQvlB-36" value="" style="endArrow=none;dashed=1;html=1;rounded=0;entryX=0.5;entryY=1;entryDx=0;entryDy=0;exitX=0.5;exitY=0;exitDx=0;exitDy=0;" edge="1" parent="1" source="YKqeXOK4ykzcalDaQvlB-37">
             <mxGeometry width="50" height="50" relative="1" as="geometry">
               <mxPoint x="-725" y="305" as="sourcePoint" />
               <mxPoint x="-700" y="205" as="targetPoint" />
             </mxGeometry>
           </mxCell>
           <mxCell id="YKqeXOK4ykzcalDaQvlB-37" value="" style="triangle;whiteSpace=wrap;html=1;rotation=-90;" vertex="1" parent="1">
             <mxGeometry x="-705" y="206" width="10" height="10" as="geometry" />
           </mxCell>
           <mxCell id="YKqeXOK4ykzcalDaQvlB-39" value="" style="endArrow=none;dashed=1;html=1;rounded=0;exitX=0.5;exitY=0;exitDx=0;exitDy=0;" edge="1" parent="1">
             <mxGeometry width="50" height="50" relative="1" as="geometry">
               <mxPoint x="-700" y="300" as="sourcePoint" />
               <mxPoint x="-700" y="220" as="targetPoint" />
             </mxGeometry>
           </mxCell>
           <mxCell id="YKqeXOK4ykzcalDaQvlB-40" value="Remocon :: interface" style="swimlane;fontStyle=0;childLayout=stackLayout;horizontal=1;startSize=26;horizontalStack=0;resizeParent=1;resizeParentMax=0;resizeLast=0;collapsible=1;marginBottom=0;align=center;fontSize=14;" vertex="1" parent="1">
             <mxGeometry x="-780" y="150" width="160" height="56" as="geometry" />
           </mxCell>
           <mxCell id="YKqeXOK4ykzcalDaQvlB-41" value="void powerOn()" style="text;strokeColor=none;fillColor=none;spacingLeft=4;spacingRight=4;overflow=hidden;rotatable=0;points=[[0,0.5],[1,0.5]];portConstraint=eastwest;fontSize=12;whiteSpace=wrap;html=1;" vertex="1" parent="YKqeXOK4ykzcalDaQvlB-40">
             <mxGeometry y="26" width="160" height="30" as="geometry" />
           </mxCell>
           <mxCell id="NwPtmF8VbW4RJotoxRgv-1" value="Soundable :: interface" style="swimlane;fontStyle=0;childLayout=stackLayout;horizontal=1;startSize=26;horizontalStack=0;resizeParent=1;resizeParentMax=0;resizeLast=0;collapsible=1;marginBottom=0;align=center;fontSize=14;" vertex="1" parent="1">
             <mxGeometry x="-320" y="150" width="160" height="56" as="geometry" />
           </mxCell>
           <mxCell id="NwPtmF8VbW4RJotoxRgv-2" value="String sound()" style="text;strokeColor=none;fillColor=none;spacingLeft=4;spacingRight=4;overflow=hidden;rotatable=0;points=[[0,0.5],[1,0.5]];portConstraint=eastwest;fontSize=12;whiteSpace=wrap;html=1;" vertex="1" parent="NwPtmF8VbW4RJotoxRgv-1">
             <mxGeometry y="26" width="160" height="30" as="geometry" />
           </mxCell>
           <mxCell id="NwPtmF8VbW4RJotoxRgv-7" value="Cat" style="swimlane;fontStyle=1;align=center;verticalAlign=top;childLayout=stackLayout;horizontal=1;startSize=26;horizontalStack=0;resizeParent=1;resizeParentMax=0;resizeLast=0;collapsible=1;marginBottom=0;whiteSpace=wrap;html=1;" vertex="1" parent="1">
             <mxGeometry x="-390" y="300" width="160" height="60" as="geometry" />
           </mxCell>
           <mxCell id="NwPtmF8VbW4RJotoxRgv-9" value="" style="line;strokeWidth=1;fillColor=none;align=left;verticalAlign=middle;spacingTop=-1;spacingLeft=3;spacingRight=3;rotatable=0;labelPosition=right;points=[];portConstraint=eastwest;strokeColor=inherit;" vertex="1" parent="NwPtmF8VbW4RJotoxRgv-7">
             <mxGeometry y="26" width="160" height="8" as="geometry" />
           </mxCell>
           <mxCell id="NwPtmF8VbW4RJotoxRgv-10" value="+ sound() : String" style="text;strokeColor=none;fillColor=none;align=left;verticalAlign=top;spacingLeft=4;spacingRight=4;overflow=hidden;rotatable=0;points=[[0,0.5],[1,0.5]];portConstraint=eastwest;whiteSpace=wrap;html=1;" vertex="1" parent="NwPtmF8VbW4RJotoxRgv-7">
             <mxGeometry y="34" width="160" height="26" as="geometry" />
           </mxCell>
           <mxCell id="NwPtmF8VbW4RJotoxRgv-11" value="Dog" style="swimlane;fontStyle=1;align=center;verticalAlign=top;childLayout=stackLayout;horizontal=1;startSize=26;horizontalStack=0;resizeParent=1;resizeParentMax=0;resizeLast=0;collapsible=1;marginBottom=0;whiteSpace=wrap;html=1;" vertex="1" parent="1">
             <mxGeometry x="-230" y="300" width="160" height="60" as="geometry" />
           </mxCell>
           <mxCell id="NwPtmF8VbW4RJotoxRgv-13" value="" style="line;strokeWidth=1;fillColor=none;align=left;verticalAlign=middle;spacingTop=-1;spacingLeft=3;spacingRight=3;rotatable=0;labelPosition=right;points=[];portConstraint=eastwest;strokeColor=inherit;" vertex="1" parent="NwPtmF8VbW4RJotoxRgv-11">
             <mxGeometry y="26" width="160" height="8" as="geometry" />
           </mxCell>
           <mxCell id="NwPtmF8VbW4RJotoxRgv-14" value="+ sound() : String" style="text;strokeColor=none;fillColor=none;align=left;verticalAlign=top;spacingLeft=4;spacingRight=4;overflow=hidden;rotatable=0;points=[[0,0.5],[1,0.5]];portConstraint=eastwest;whiteSpace=wrap;html=1;" vertex="1" parent="NwPtmF8VbW4RJotoxRgv-11">
             <mxGeometry y="34" width="160" height="26" as="geometry" />
           </mxCell>
           <mxCell id="NwPtmF8VbW4RJotoxRgv-15" value="" style="endArrow=none;dashed=1;html=1;rounded=0;entryX=0.5;entryY=1;entryDx=0;entryDy=0;exitX=0.5;exitY=0;exitDx=0;exitDy=0;" edge="1" parent="1" source="NwPtmF8VbW4RJotoxRgv-16">
             <mxGeometry width="50" height="50" relative="1" as="geometry">
               <mxPoint x="-310" y="305" as="sourcePoint" />
               <mxPoint x="-285" y="205" as="targetPoint" />
             </mxGeometry>
           </mxCell>
           <mxCell id="NwPtmF8VbW4RJotoxRgv-16" value="" style="triangle;whiteSpace=wrap;html=1;rotation=-90;" vertex="1" parent="1">
             <mxGeometry x="-290" y="206" width="10" height="10" as="geometry" />
           </mxCell>
           <mxCell id="NwPtmF8VbW4RJotoxRgv-17" value="" style="endArrow=none;dashed=1;html=1;rounded=0;exitX=0.5;exitY=0;exitDx=0;exitDy=0;" edge="1" parent="1">
             <mxGeometry width="50" height="50" relative="1" as="geometry">
               <mxPoint x="-285" y="300" as="sourcePoint" />
               <mxPoint x="-285" y="220" as="targetPoint" />
             </mxGeometry>
           </mxCell>
           <mxCell id="NwPtmF8VbW4RJotoxRgv-27" value="" style="endArrow=none;dashed=1;html=1;rounded=0;entryX=0.5;entryY=1;entryDx=0;entryDy=0;exitX=0.5;exitY=0;exitDx=0;exitDy=0;" edge="1" parent="1" source="NwPtmF8VbW4RJotoxRgv-28">
             <mxGeometry width="50" height="50" relative="1" as="geometry">
               <mxPoint x="-230" y="306" as="sourcePoint" />
               <mxPoint x="-205" y="206" as="targetPoint" />
             </mxGeometry>
           </mxCell>
           <mxCell id="NwPtmF8VbW4RJotoxRgv-28" value="" style="triangle;whiteSpace=wrap;html=1;rotation=-90;" vertex="1" parent="1">
             <mxGeometry x="-210" y="207" width="10" height="10" as="geometry" />
           </mxCell>
           <mxCell id="NwPtmF8VbW4RJotoxRgv-29" value="" style="endArrow=none;dashed=1;html=1;rounded=0;exitX=0.5;exitY=0;exitDx=0;exitDy=0;" edge="1" parent="1">
             <mxGeometry width="50" height="50" relative="1" as="geometry">
               <mxPoint x="-205" y="301" as="sourcePoint" />
               <mxPoint x="-205" y="221" as="targetPoint" />
             </mxGeometry>
           </mxCell>
           <mxCell id="NwPtmF8VbW4RJotoxRgv-30" value="SoundableExample" style="swimlane;fontStyle=1;align=center;verticalAlign=top;childLayout=stackLayout;horizontal=1;startSize=26;horizontalStack=0;resizeParent=1;resizeParentMax=0;resizeLast=0;collapsible=1;marginBottom=0;whiteSpace=wrap;html=1;" vertex="1" parent="1">
             <mxGeometry x="-510" y="150" width="160" height="60" as="geometry" />
           </mxCell>
           <mxCell id="NwPtmF8VbW4RJotoxRgv-32" value="" style="line;strokeWidth=1;fillColor=none;align=left;verticalAlign=middle;spacingTop=-1;spacingLeft=3;spacingRight=3;rotatable=0;labelPosition=right;points=[];portConstraint=eastwest;strokeColor=inherit;" vertex="1" parent="NwPtmF8VbW4RJotoxRgv-30">
             <mxGeometry y="26" width="160" height="8" as="geometry" />
           </mxCell>
           <mxCell id="NwPtmF8VbW4RJotoxRgv-33" value="+ printSound() : void" style="text;strokeColor=none;fillColor=none;align=left;verticalAlign=top;spacingLeft=4;spacingRight=4;overflow=hidden;rotatable=0;points=[[0,0.5],[1,0.5]];portConstraint=eastwest;whiteSpace=wrap;html=1;" vertex="1" parent="NwPtmF8VbW4RJotoxRgv-30">
             <mxGeometry y="34" width="160" height="26" as="geometry" />
           </mxCell>
           <mxCell id="NwPtmF8VbW4RJotoxRgv-34" value="TV" style="swimlane;fontStyle=1;align=center;verticalAlign=top;childLayout=stackLayout;horizontal=1;startSize=26;horizontalStack=0;resizeParent=1;resizeParentMax=0;resizeLast=0;collapsible=1;marginBottom=0;whiteSpace=wrap;html=1;" vertex="1" parent="1">
             <mxGeometry x="-780" y="300" width="160" height="60" as="geometry" />
           </mxCell>
           <mxCell id="NwPtmF8VbW4RJotoxRgv-36" value="" style="line;strokeWidth=1;fillColor=none;align=left;verticalAlign=middle;spacingTop=-1;spacingLeft=3;spacingRight=3;rotatable=0;labelPosition=right;points=[];portConstraint=eastwest;strokeColor=inherit;" vertex="1" parent="NwPtmF8VbW4RJotoxRgv-34">
             <mxGeometry y="26" width="160" height="8" as="geometry" />
           </mxCell>
           <mxCell id="NwPtmF8VbW4RJotoxRgv-37" value="+ powerOn() : void&lt;div&gt;&lt;br&gt;&lt;/div&gt;" style="text;strokeColor=none;fillColor=none;align=left;verticalAlign=top;spacingLeft=4;spacingRight=4;overflow=hidden;rotatable=0;points=[[0,0.5],[1,0.5]];portConstraint=eastwest;whiteSpace=wrap;html=1;" vertex="1" parent="NwPtmF8VbW4RJotoxRgv-34">
             <mxGeometry y="34" width="160" height="26" as="geometry" />
           </mxCell>
           <mxCell id="NwPtmF8VbW4RJotoxRgv-38" value="DaoExample&lt;div&gt;&lt;br&gt;&lt;/div&gt;" style="swimlane;fontStyle=1;align=center;verticalAlign=top;childLayout=stackLayout;horizontal=1;startSize=26;horizontalStack=0;resizeParent=1;resizeParentMax=0;resizeLast=0;collapsible=1;marginBottom=0;whiteSpace=wrap;html=1;" vertex="1" parent="1">
             <mxGeometry x="-790" y="470" width="210" height="80" as="geometry" />
           </mxCell>
           <mxCell id="NwPtmF8VbW4RJotoxRgv-39" value="" style="line;strokeWidth=1;fillColor=none;align=left;verticalAlign=middle;spacingTop=-1;spacingLeft=3;spacingRight=3;rotatable=0;labelPosition=right;points=[];portConstraint=eastwest;strokeColor=inherit;" vertex="1" parent="NwPtmF8VbW4RJotoxRgv-38">
             <mxGeometry y="26" width="210" height="8" as="geometry" />
           </mxCell>
           <mxCell id="NwPtmF8VbW4RJotoxRgv-40" value="+ dbWork(DataAccessObject) : void" style="text;strokeColor=none;fillColor=none;align=left;verticalAlign=top;spacingLeft=4;spacingRight=4;overflow=hidden;rotatable=0;points=[[0,0.5],[1,0.5]];portConstraint=eastwest;whiteSpace=wrap;html=1;" vertex="1" parent="NwPtmF8VbW4RJotoxRgv-38">
             <mxGeometry y="34" width="210" height="46" as="geometry" />
           </mxCell>
           <mxCell id="NwPtmF8VbW4RJotoxRgv-51" value="" style="endArrow=none;dashed=1;html=1;rounded=0;exitX=0.5;exitY=0;exitDx=0;exitDy=0;" edge="1" parent="1" source="NwPtmF8VbW4RJotoxRgv-85">
             <mxGeometry width="50" height="50" relative="1" as="geometry">
               <mxPoint x="-725" y="810" as="sourcePoint" />
               <mxPoint x="-725" y="730" as="targetPoint" />
             </mxGeometry>
           </mxCell>
           <mxCell id="NwPtmF8VbW4RJotoxRgv-54" value="" style="endArrow=none;dashed=1;html=1;rounded=0;exitX=0.5;exitY=0;exitDx=0;exitDy=0;" edge="1" parent="1">
             <mxGeometry width="50" height="50" relative="1" as="geometry">
               <mxPoint x="-615.5" y="810" as="sourcePoint" />
               <mxPoint x="-615.5" y="730" as="targetPoint" />
             </mxGeometry>
           </mxCell>
           <mxCell id="NwPtmF8VbW4RJotoxRgv-55" value="DataAccessObject :: interface" style="swimlane;fontStyle=0;childLayout=stackLayout;horizontal=1;startSize=26;fillColor=none;horizontalStack=0;resizeParent=1;resizeParentMax=0;resizeLast=0;collapsible=1;marginBottom=0;whiteSpace=wrap;html=1;" vertex="1" parent="1">
             <mxGeometry x="-800" y="580" width="240" height="140" as="geometry" />
           </mxCell>
           <mxCell id="NwPtmF8VbW4RJotoxRgv-56" value="&lt;div&gt;&amp;nbsp;select() : void&lt;/div&gt;&lt;div&gt;&lt;br&gt;&lt;/div&gt;&lt;div&gt;&amp;nbsp;insert() : void&lt;/div&gt;&lt;div&gt;&lt;br&gt;&lt;/div&gt;&amp;nbsp;update() : void&lt;div&gt;&lt;br&gt;&lt;/div&gt;&lt;div&gt;&amp;nbsp;delete() : void&lt;/div&gt;&lt;div&gt;&lt;br&gt;&lt;/div&gt;" style="text;strokeColor=none;fillColor=none;align=left;verticalAlign=top;spacingLeft=4;spacingRight=4;overflow=hidden;rotatable=0;points=[[0,0.5],[1,0.5]];portConstraint=eastwest;whiteSpace=wrap;html=1;" vertex="1" parent="NwPtmF8VbW4RJotoxRgv-55">
             <mxGeometry y="26" width="240" height="114" as="geometry" />
           </mxCell>
           <mxCell id="NwPtmF8VbW4RJotoxRgv-74" value="MySqlDao&lt;div&gt;&lt;br&gt;&lt;/div&gt;" style="swimlane;fontStyle=1;align=center;verticalAlign=top;childLayout=stackLayout;horizontal=1;startSize=26;horizontalStack=0;resizeParent=1;resizeParentMax=0;resizeLast=0;collapsible=1;marginBottom=0;whiteSpace=wrap;html=1;" vertex="1" parent="1">
             <mxGeometry x="-820" y="810" width="160" height="190" as="geometry" />
           </mxCell>
           <mxCell id="NwPtmF8VbW4RJotoxRgv-75" value="- dbName : String" style="text;strokeColor=none;fillColor=none;align=left;verticalAlign=top;spacingLeft=4;spacingRight=4;overflow=hidden;rotatable=0;points=[[0,0.5],[1,0.5]];portConstraint=eastwest;whiteSpace=wrap;html=1;" vertex="1" parent="NwPtmF8VbW4RJotoxRgv-74">
             <mxGeometry y="26" width="160" height="26" as="geometry" />
           </mxCell>
           <mxCell id="NwPtmF8VbW4RJotoxRgv-76" value="" style="line;strokeWidth=1;fillColor=none;align=left;verticalAlign=middle;spacingTop=-1;spacingLeft=3;spacingRight=3;rotatable=0;labelPosition=right;points=[];portConstraint=eastwest;strokeColor=inherit;" vertex="1" parent="NwPtmF8VbW4RJotoxRgv-74">
             <mxGeometry y="52" width="160" height="8" as="geometry" />
           </mxCell>
           <mxCell id="NwPtmF8VbW4RJotoxRgv-77" value="&lt;div&gt;&amp;nbsp;select() : void&lt;/div&gt;&lt;div&gt;&lt;br&gt;&lt;/div&gt;&lt;div&gt;&amp;nbsp;insert() : void&lt;/div&gt;&lt;div&gt;&lt;br&gt;&lt;/div&gt;&amp;nbsp;update() : void&lt;div&gt;&lt;br&gt;&lt;/div&gt;&lt;div&gt;&amp;nbsp;delete() : void&lt;/div&gt;&lt;div&gt;&lt;br&gt;&lt;/div&gt;" style="text;strokeColor=none;fillColor=none;align=left;verticalAlign=top;spacingLeft=4;spacingRight=4;overflow=hidden;rotatable=0;points=[[0,0.5],[1,0.5]];portConstraint=eastwest;whiteSpace=wrap;html=1;" vertex="1" parent="NwPtmF8VbW4RJotoxRgv-74">
             <mxGeometry y="60" width="160" height="130" as="geometry" />
           </mxCell>
           <mxCell id="NwPtmF8VbW4RJotoxRgv-81" value="&lt;div&gt;OracleDao&lt;/div&gt;" style="swimlane;fontStyle=1;align=center;verticalAlign=top;childLayout=stackLayout;horizontal=1;startSize=26;horizontalStack=0;resizeParent=1;resizeParentMax=0;resizeLast=0;collapsible=1;marginBottom=0;whiteSpace=wrap;html=1;" vertex="1" parent="1">
             <mxGeometry x="-640" y="810" width="160" height="190" as="geometry" />
           </mxCell>
           <mxCell id="NwPtmF8VbW4RJotoxRgv-82" value="- dbName : String" style="text;strokeColor=none;fillColor=none;align=left;verticalAlign=top;spacingLeft=4;spacingRight=4;overflow=hidden;rotatable=0;points=[[0,0.5],[1,0.5]];portConstraint=eastwest;whiteSpace=wrap;html=1;" vertex="1" parent="NwPtmF8VbW4RJotoxRgv-81">
             <mxGeometry y="26" width="160" height="26" as="geometry" />
           </mxCell>
           <mxCell id="NwPtmF8VbW4RJotoxRgv-83" value="" style="line;strokeWidth=1;fillColor=none;align=left;verticalAlign=middle;spacingTop=-1;spacingLeft=3;spacingRight=3;rotatable=0;labelPosition=right;points=[];portConstraint=eastwest;strokeColor=inherit;" vertex="1" parent="NwPtmF8VbW4RJotoxRgv-81">
             <mxGeometry y="52" width="160" height="8" as="geometry" />
           </mxCell>
           <mxCell id="NwPtmF8VbW4RJotoxRgv-84" value="&lt;div&gt;&amp;nbsp;select() : void&lt;/div&gt;&lt;div&gt;&lt;br&gt;&lt;/div&gt;&lt;div&gt;&amp;nbsp;insert() : void&lt;/div&gt;&lt;div&gt;&lt;br&gt;&lt;/div&gt;&amp;nbsp;update() : void&lt;div&gt;&lt;br&gt;&lt;/div&gt;&lt;div&gt;&amp;nbsp;delete() : void&lt;/div&gt;&lt;div&gt;&lt;br&gt;&lt;/div&gt;" style="text;strokeColor=none;fillColor=none;align=left;verticalAlign=top;spacingLeft=4;spacingRight=4;overflow=hidden;rotatable=0;points=[[0,0.5],[1,0.5]];portConstraint=eastwest;whiteSpace=wrap;html=1;" vertex="1" parent="NwPtmF8VbW4RJotoxRgv-81">
             <mxGeometry y="60" width="160" height="130" as="geometry" />
           </mxCell>
           <mxCell id="NwPtmF8VbW4RJotoxRgv-86" value="" style="endArrow=none;dashed=1;html=1;rounded=0;exitX=0.5;exitY=0;exitDx=0;exitDy=0;" edge="1" parent="1" target="NwPtmF8VbW4RJotoxRgv-85">
             <mxGeometry width="50" height="50" relative="1" as="geometry">
               <mxPoint x="-725" y="810" as="sourcePoint" />
               <mxPoint x="-725" y="730" as="targetPoint" />
             </mxGeometry>
           </mxCell>
           <mxCell id="NwPtmF8VbW4RJotoxRgv-85" value="" style="triangle;whiteSpace=wrap;html=1;rotation=-90;" vertex="1" parent="1">
             <mxGeometry x="-730" y="720" width="10" height="10" as="geometry" />
           </mxCell>
           <mxCell id="NwPtmF8VbW4RJotoxRgv-87" value="" style="triangle;whiteSpace=wrap;html=1;rotation=-90;" vertex="1" parent="1">
             <mxGeometry x="-620" y="720" width="10" height="10" as="geometry" />
           </mxCell>
         </root>
       </mxGraphModel>
  </diagram>
</mxfile>
